<?xml version="1.0" encoding="utf-8"?>
<svg version="1.1" xmlns="http://www.w3.org/2000/svg" xmlns:xlink="http://www.w3.org/1999/xlink" x="0px" y="0px" viewBox="0 0 125 125" style="enable-background:new 0 0 125 125;" xml:space="preserve">
<style type="text/css">
.st0{fill:#41B25D;}
</style>
<g>
<g>
<path class="st0" d="M46.8,92.9L59.3,73c1.4-2.2-0.2-5-2.7-5H42.6l22.8-36.4h13L65.7,52c-1.4,2.2,0.2,5,2.7,5h13.9L59.8,92.9H46.8
z"/>
<path class="st0" d="M100.7,13.2l-5.9,9.4c11.6,9.4,19.1,23.8,19.1,39.9c0,28.3-23,51.3-51.3,51.3c-4.3,0-8.6-0.6-12.6-1.6
c-0.9-0.2-1.4-1.3-0.9-2.1l5.2-8.3h-13l-3.5,5.6l-5.9,9.3c3.2,1.8,6.6,3.4,10.1,4.6c7.3,2.6,15.3,3.8,23.6,3.4
c32.1-1.6,58.1-27.9,59.2-60C125.6,43.8,115.9,25.1,100.7,13.2z"/>
<path class="st0" d="M24.3,111.8l5.9-9.4C18.6,93,11.2,78.6,11.2,62.5c0-28.3,23-51.3,51.3-51.3c4.3,0,8.6,0.6,12.6,1.6
C76,13,76.5,14,76,14.9l-5.2,8.3h13l3.5-5.6l5.9-9.3C89.9,6.4,86.5,4.9,83,3.6c-7.3-2.6-15.3-3.8-23.6-3.4
C27.3,1.8,1.3,28.1,0.2,60.2C-0.6,81.2,9.1,99.9,24.3,111.8z"/>
</g>
</g>
</svg>
